<svg width="312" height="312" viewBox="0 0 312 312" fill="none" xmlns="http://www.w3.org/2000/svg">
<path opacity="0.630682" fill-rule="evenodd" clip-rule="evenodd" d="M277.637 270.562C277.637 275.364 274.528 280.118 268.489 284.554C262.45 288.99 253.599 293.021 242.44 296.416C231.282 299.811 218.034 302.504 203.455 304.342C188.875 306.179 173.249 307.125 157.469 307.125C141.688 307.125 126.062 306.179 111.482 304.342C96.9028 302.504 83.6555 299.811 72.4969 296.416C61.3382 293.021 52.4867 288.99 46.4477 284.554C40.4087 280.118 37.3005 275.364 37.3005 270.562C37.3005 265.761 40.4087 261.007 46.4477 256.571C52.4867 252.135 61.3382 248.104 72.4969 244.709C83.6555 241.314 96.9028 238.621 111.482 236.783C126.062 234.946 141.688 234 157.469 234C173.249 234 188.875 234.946 203.455 236.783C218.034 238.621 231.282 241.314 242.44 244.709C253.599 248.104 262.45 252.135 268.489 256.571C274.528 261.007 277.637 265.761 277.637 270.562V270.562Z" fill="url(#paint0_radial)"/>
<path fill-rule="evenodd" clip-rule="evenodd" d="M101.342 3.19748H212.396L295.734 88.3115V204.62L213.518 282.73H100.221L16.2135 199.279V87.5165L101.342 3.19748Z" fill="url(#paint1_linear)" stroke="#860000"/>
<path opacity="0.813187" fill-rule="evenodd" clip-rule="evenodd" d="M104.134 9.75221H209.616L289.227 90.4976V201.74L212.15 276.171H103.157L22.809 196.357V89.9964L104.134 9.75221Z" stroke="url(#paint2_linear)"/>
<path opacity="0.289773" fill-rule="evenodd" clip-rule="evenodd" d="M101.969 4.875L17.875 88.1563V198.656L36.9688 217.547C145.925 217.921 144.07 132.925 294.125 140.359V88.9688L211.656 4.875H101.969Z" fill="url(#paint3_radial)"/>
<g filter="url(#filter0_i)">
<rect x="109" y="13" width="96" height="66" fill="white"/>
<rect x="109" y="208" width="96" height="66" fill="white"/>
<path d="M233 143.182C233 183.455 199.301 216.687 157 216.687C114.699 216.687 81 183.455 81 143.182C81 102.909 114.699 69.6761 157 69.6761C199.301 69.6761 233 102.909 233 143.182Z" stroke="white" stroke-width="24"/>
<rect x="149.09" y="98.0271" width="13.8427" height="45.1547" fill="white"/>
<rect width="13.7337" height="43.4696" transform="matrix(0.854833 -0.518903 0.540816 0.841141 149.09 142.622)" fill="white"/>
</g>
<defs>
<filter id="filter0_i" x="69" y="13" width="176" height="265" filterUnits="userSpaceOnUse" color-interpolation-filters="sRGB">
<feFlood flood-opacity="0" result="BackgroundImageFix"/>
<feBlend mode="normal" in="SourceGraphic" in2="BackgroundImageFix" result="shape"/>
<feColorMatrix in="SourceAlpha" type="matrix" values="0 0 0 0 0 0 0 0 0 0 0 0 0 0 0 0 0 0 127 0" result="hardAlpha"/>
<feOffset dy="4"/>
<feGaussianBlur stdDeviation="2"/>
<feComposite in2="hardAlpha" operator="arithmetic" k2="-1" k3="1"/>
<feColorMatrix type="matrix" values="0 0 0 0 0 0 0 0 0 0 0 0 0 0 0 0 0 0 0.25 0"/>
<feBlend mode="normal" in2="shape" result="effect1_innerShadow"/>
</filter>
<radialGradient id="paint0_radial" cx="0" cy="0" r="1" gradientUnits="userSpaceOnUse" gradientTransform="translate(157.469 270.562) scale(120.168 36.5625)">
<stop/>
<stop offset="1" stop-opacity="0"/>
</radialGradient>
<linearGradient id="paint1_linear" x1="155.974" y1="117.685" x2="266.811" y2="233.739" gradientUnits="userSpaceOnUse">
<stop stop-color="#CC0000"/>
<stop offset="1" stop-color="#B30000"/>
</linearGradient>
<linearGradient id="paint2_linear" x1="102.29" y1="68.2734" x2="348.206" y2="294.933" gradientUnits="userSpaceOnUse">
<stop stop-color="#FF8B8B"/>
<stop offset="1" stop-color="#EC1B1B"/>
</linearGradient>
<radialGradient id="paint3_radial" cx="0" cy="0" r="1" gradientUnits="userSpaceOnUse" gradientTransform="translate(108.875 68.9616) scale(573.903 441.824)">
<stop stop-color="white"/>
<stop offset="1" stop-color="white" stop-opacity="0"/>
</radialGradient>
</defs>
</svg>
